<svg width="21" height="18" viewBox="0 0 21 18" fill="none" xmlns="http://www.w3.org/2000/svg">
	<path fill-rule="evenodd" clip-rule="evenodd" d="M9.50626 1.90072C8.52343 1.04068 6.50967 -0.127689 3.54098 0.999999C-0.785736 2.644 -2.75929 10.786 9.41471 17.222C9.75962 17.404 10.0351 17.458 10.2025 17.464C10.3699 17.458 10.6433 17.404 10.9903 17.222C23.1602 10.786 21.1887 2.644 16.8599 0.999999C13.8915 -0.126232 11.8778 1.04136 10.8949 1.90094C10.4503 2.28971 10.2166 2.61548 10.2008 2.6375L10.2005 2.638L10.2001 2.63746C10.184 2.61507 9.9504 2.28938 9.50626 1.90072ZM16.5049 1.93485C14.6433 1.22866 13.2914 1.5792 12.4008 2.06263C11.9409 2.31223 11.589 2.6068 11.3514 2.84095C11.2332 2.95734 11.1456 3.05663 11.0891 3.12448C11.061 3.15832 11.0407 3.18413 11.0285 3.20009L11.0161 3.21658L11.0127 3.22128L10.2005 4.35242L9.38819 3.22128L9.38463 3.21638L9.37221 3.19986C9.36 3.18388 9.33977 3.15805 9.31161 3.12418C9.25514 3.05628 9.16747 2.95693 9.04935 2.84048C8.81171 2.60619 8.45978 2.31148 7.99997 2.0618C7.10944 1.57823 5.75774 1.22768 3.89617 1.93479M16.5052 1.93497C18.193 2.57615 19.5428 4.54277 19.1247 7.15601C18.7062 9.77136 16.4587 13.1984 10.5244 16.3371C10.4113 16.3964 10.3221 16.4285 10.2604 16.4458C10.2365 16.4524 10.2171 16.4567 10.2023 16.4595C10.1872 16.4567 10.1675 16.4524 10.1434 16.4456C10.0815 16.4284 9.99304 16.3964 9.88208 16.3379C3.94456 13.199 1.6962 9.77146 1.2775 7.15593C0.859155 4.54254 2.20915 2.57585 3.89609 1.93483" fill="black" />
</svg>
